<?xml version="1.0" standalone="no"?>
<!DOCTYPE svg PUBLIC "-//W3C//DTD SVG 20010904//EN"
 "http://www.w3.org/TR/2001/REC-SVG-20010904/DTD/svg10.dtd">
<svg version="1.0" xmlns="http://www.w3.org/2000/svg"
 width="1000.000000pt" height="1000.000000pt" viewBox="0 0 1000.000000 1000.000000"
 preserveAspectRatio="xMidYMid meet">
<metadata>
Created by potrace 1.11, written by Peter Selinger 2001-2013
</metadata>
<g transform="translate(0.000000,1000.000000) scale(0.100000,-0.100000)"
fill="#000000" stroke="none">
<path d="M3393 7806 c-13 -16 -27 -60 -37 -114 -9 -48 -18 -98 -21 -112 -7
-34 -23 -128 -29 -165 -3 -16 -12 -70 -20 -120 -9 -49 -18 -108 -21 -130 -4
-22 -8 -53 -11 -69 -7 -41 13 -83 42 -90 13 -4 480 -6 1038 -6 558 0 1028 -3
1045 -6 18 -4 33 -14 37 -26 12 -38 -134 -293 -554 -966 -70 -111 -134 -213
-142 -227 -8 -13 -33 -52 -54 -87 -43 -69 -626 -986 -722 -1136 -32 -51 -66
-104 -74 -118 -8 -13 -98 -156 -200 -317 -454 -718 -543 -870 -536 -915 2 -15
7 -67 11 -117 4 -49 8 -92 10 -95 2 -3 7 -33 10 -65 4 -33 9 -69 11 -80 4 -21
10 -52 18 -100 26 -147 39 -179 79 -194 13 -5 569 -11 1237 -14 668 -4 1251
-8 1295 -11 153 -10 655 -18 688 -12 44 8 56 32 62 130 7 103 10 130 40 311
14 83 27 168 30 190 4 22 8 51 10 65 3 14 7 66 11 115 8 119 7 119 -128 111
-57 -3 -139 -10 -183 -16 -44 -6 -96 -13 -115 -15 -19 -3 -66 -9 -105 -14 -38
-6 -101 -13 -140 -16 -38 -4 -86 -8 -105 -10 -35 -4 -203 -13 -355 -20 -180
-8 -699 -18 -986 -19 -357 -1 -353 -2 -312 72 26 47 166 280 239 399 160 258
201 324 229 368 18 28 99 156 181 285 81 129 171 271 199 315 28 44 132 207
231 363 98 155 204 321 235 370 30 48 212 335 403 637 192 303 359 566 371
585 66 103 119 188 190 303 l78 128 -6 147 c-4 81 -9 163 -11 182 -3 19 -8 55
-11 80 -8 63 -33 168 -45 190 -6 11 -25 22 -43 25 -17 3 -563 7 -1212 8 -649
2 -1200 7 -1225 10 -25 4 -81 9 -125 12 -44 4 -102 8 -130 11 -27 2 -118 7
-201 10 l-151 7 -20 -27z"/>
</g>
</svg>
